<?xml version="1.0" encoding="utf-8"?>
<!-- Generator: Adobe Illustrator 26.2.1, SVG Export Plug-In . SVG Version: 6.00 Build 0)  -->
<svg version="1.1" id="레이어_1" xmlns="http://www.w3.org/2000/svg" xmlns:xlink="http://www.w3.org/1999/xlink" x="0px"
	 y="0px" viewBox="0 0 500 500" style="enable-background:new 0 0 500 500;" xml:space="preserve">
<style type="text/css">
	.st0{fill:#FFFFFF;}
</style>
<g>
	<path class="st0" d="M250,427.56c-97.9,0-177.56-79.67-177.56-177.56S152.1,72.44,250,72.44S427.56,152.1,427.56,250
		S347.9,427.56,250,427.56z M250,88.98c-88.78,0-161.02,72.24-161.02,161.02S161.22,411.02,250,411.02S411.02,338.78,411.02,250
		S338.78,88.98,250,88.98z"/>
	<rect x="83.24" y="220.63" class="st0" width="334.87" height="16.88"/>
	<path class="st0" d="M168.98,404.27c-0.68,0-1.35,0-2.36-0.34c-3.71-1.01-6.08-4.39-6.08-8.1V104.51c0-4.73,3.71-8.44,8.44-8.44
		c4.73,0,8.44,3.71,8.44,8.44v260.61l150.22-255.54c2.03-3.38,5.74-4.73,9.45-3.71s6.08,4.39,6.08,8.1v277.15
		c0,4.73-3.71,8.44-8.44,8.44c-4.73,0-8.44-3.71-8.44-8.44V144.68L176.07,400.22C174.72,402.92,172.02,404.27,168.98,404.27z"/>
</g>
</svg>
